HIERARCHY
ROOT Hips
{
  OFFSET 5.70366 102.999 -1.77653
  CHANNELS 6 Xposition Yposition Zposition Zrotation Xrotation Yrotation
  JOINT RightUpLeg
  {
    OFFSET -8.9458 -8.66707 0.101652
    CHANNELS 3 Zrotation Xrotation Yrotation
    JOINT RightLeg
    {
      OFFSET 0 -44.4227 1.3727
      CHANNELS 3 Zrotation Xrotation Yrotation
      JOINT RightFoot
      {
        OFFSET 0.253549 -42.0924 -1.46059
        CHANNELS 3 Zrotation Xrotation Yrotation
        JOINT RightToes
        {
          OFFSET 0.04 -4.41509 8.4991
          CHANNELS 3 Zrotation Xrotation Yrotation
          End Site
          {
            OFFSET -0.08 -0.137448 9.77979
          }
        }
      }
    }
  }
  JOINT Spine
  {
    OFFSET 0 11.8905 0
    CHANNELS 3 Zrotation Xrotation Yrotation
    JOINT Spine1
    {
      OFFSET 0 25.6574 0.127663
      CHANNELS 3 Zrotation Xrotation Yrotation
      JOINT HEad
      {
        OFFSET 0 8.73416 0.011341
        CHANNELS 3 Zrotation Xrotation Yrotation
        End Site
        {
          OFFSET -0.29 12.7742 2.51395
        }
      }
      JOINT LeftShoulder1
      {
        OFFSET 8.99 -0.362252 -0.22
        CHANNELS 3 Zrotation Xrotation Yrotation
        JOINT LeftArm
        {
          OFFSET 10.2827 -0.00337999 0.322123
          CHANNELS 3 Zrotation Xrotation Yrotation
          JOINT LeftForeArm
          {
            OFFSET 26.2597 0.099144 -1.42434
            CHANNELS 3 Zrotation Xrotation Yrotation
            JOINT LeftHand
            {
              OFFSET 22.0902 0.085362 1.02216
              CHANNELS 3 Zrotation Xrotation Yrotation
              End Site
              {
                OFFSET 13.419 -0.6 1.50291
              }
            }
          }
        }
      }
      JOINT RightShoulder
      {
        OFFSET -8.99 -0.362252 -0.22
        CHANNELS 3 Zrotation Xrotation Yrotation
        JOINT RightArm
        {
          OFFSET -10.2827 -0.00338 0.322123
          CHANNELS 3 Zrotation Xrotation Yrotation
          JOINT RightForeArm
          {
            OFFSET -26.364 0.099144 -1.42434
            CHANNELS 3 Zrotation Xrotation Yrotation
            JOINT RightHand
            {
              OFFSET -22.0324 0.085362 1.02216
              CHANNELS 3 Zrotation Xrotation Yrotation
              End Site
              {
                OFFSET -13.3284 -0.6 1.50291
              }
            }
          }
        }
      }
    }
  }
  JOINT LeftUpLeg
  {
    OFFSET 8.9458 -8.66707 0.101652
    CHANNELS 3 Zrotation Xrotation Yrotation
    JOINT LeftLeg
    {
      OFFSET 0 -44.4227 1.3727
      CHANNELS 3 Zrotation Xrotation Yrotation
      JOINT LeftFoot
      {
        OFFSET -0.253549 -42.0924 -1.46059
        CHANNELS 3 Zrotation Xrotation Yrotation
        JOINT LeftToes
        {
          OFFSET -0.04 -4.41509 8.4991
          CHANNELS 3 Zrotation Xrotation Yrotation
          End Site
          {
            OFFSET 0.08 -0.047448 9.77979
          }
        }
      }
    }
  }
}
MOTION
Frames:	8
Frame Time:	0.0416667
242.5 100.885 -21.1714 -0.298658 4.24666 -83.0792 4.28094 -11.145 1.13813 -0.450919 17.6744 -1.49476 -2.44962 -5.78313 -0.11881 0.0462048 0.00053089 0.662642 -2.08112 7.07662 -0.792901 1.06754 -2.18857 -1.0105 9.17953 -0.613649 -9.08123 -29.8207 -2.91258 11.7715 -43.6187 7.1305 -11.4911 0.73339 32.4188 -21.9689 4.97376 9.39761 -8.64664 40.8875 0.40282 -3.30158 37.6397 -18.7849 1.14835 0.768244 40.4779 14.4288 2.52622 10.0572 0.300044 3.16043 -11.6718 13.157 1.49607 28.6242 33.5005 -5.17917 -9.98581 -0.0586097 -1.30212e-009 8.75243e-006 -1.4665e-008 
242.164 100.535 -21.575 -0.626236 4.26119 -82.6655 4.63496 -11.3972 1.01743 -0.46173 19.4138 -1.94022 -3.11629 -7.31343 -0.159878 0.0462048 0.00053089 0.662642 -0.814667 7.48202 -0.44245 0.841761 -2.25903 -0.547462 8.99204 -0.584636 -9.73234 -30.0795 -2.87823 11.6213 -44.0531 5.96122 -10.1463 0.843394 32.9991 -21.8983 5.0756 9.38786 -8.57344 40.9827 0.468328 -3.16501 37.6265 -18.3122 2.2966 0.920671 41.3471 14.3702 2.41098 10.0437 0.0312002 4.82366 -15.1359 13.5017 1.54761 36.032 29.3068 -1.42458 -8.03774 0.0286739 -1.30212e-009 8.75243e-006 -1.4665e-008 
241.682 100.345 -21.7673 -0.639867 4.15868 -81.8629 4.60919 -11.6039 0.638113 -0.448277 20.6197 -2.35312 -3.22161 -8.61813 -0.204945 0.0462048 0.00053089 0.662642 0.32972 7.43058 -0.29701 0.556883 -2.26551 -0.282624 9.00829 -0.186756 -10.4399 -30.2681 -2.90963 11.6666 -44.4643 3.25518 -8.77029 0.651693 35.8696 -21.0077 5.46449 9.34274 -8.52931 41.0105 0.498923 -3.10118 37.6853 -17.669 3.3201 0.678171 40.945 14.9892 2.38262 10.0338 -0.239511 5.62402 -18.3501 11.6972 1.31777 41.5445 20.4953 2.10146 -7.15956 0.0213414 -1.30212e-009 8.75243e-006 -1.4665e-008 
241.099 100.392 -21.7549 -0.374537 3.71962 -81.0785 4.01145 -11.4644 0.095255 -0.458665 20.7468 -2.43107 -2.80977 -9.31586 -0.223786 0.0462048 0.00053089 0.662642 1.02081 7.23874 -0.0299822 0.163479 -2.3335 0.0834773 8.85501 -0.0837777 -11.2201 -30.4361 -2.98935 11.8468 -44.8086 -1.8571 -7.75085 -0.0778339 41.5644 -19.1494 5.30763 9.3898 -7.77334 40.8172 0.455247 -3.1906 37.9261 -17.2515 4.23526 0.445629 39.6289 15.6037 1.99861 10.0324 0.571538 5.29415 -20.8515 8.12611 0.914321 43.4863 9.73314 1.17401 -7.87622 0.0325122 -1.30212e-009 8.75243e-006 -1.4665e-008 
240.418 100.551 -21.5686 -0.0177942 3.10631 -80.5848 3.17854 -11.0742 -0.461757 -0.538932 20.3829 -2.41351 -2.86119 -9.62545 -0.23449 0.0462048 0.00053089 0.662642 1.43821 6.96222 0.380271 -0.210437 -2.23752 0.559018 8.37206 -0.497249 -11.9213 -30.7533 -3.10284 12.0828 -44.8305 -8.34581 -6.91663 -1.2346 48.1391 -16.7676 4.46014 9.52288 -6.55308 40.291 0.464248 -3.16489 38.2149 -16.0728 5.10505 0.26952 37.7368 16.5169 1.39991 10.0298 1.7811 4.23481 -22.4225 3.48723 0.698761 41.4024 5.67448 -0.865492 -8.28969 0.0345949 -1.30212e-009 8.75243e-006 -1.4665e-008 
239.627 100.715 -21.2581 0.231495 2.63846 -80.4472 2.51928 -10.4616 -0.872061 -0.644246 19.8672 -2.09949 -3.13996 -9.71695 -0.24251 0.0462048 0.00053089 0.662642 1.9947 6.88612 0.697871 -0.797793 -2.16488 0.955823 7.74849 -1.0477 -12.2781 -31.2665 -3.28365 12.4482 -44.154 -14.0296 -5.8235 -2.2039 53.611 -14.6837 3.93634 9.59512 -5.85339 39.6068 0.574462 -2.91725 38.4803 -13.6935 5.99798 0.106923 35.193 17.8886 1.0849 10.0251 2.43373 3.36409 -22.9365 -0.697433 0.776603 36.4091 9.18845 -0.344334 -7.70124 0.0293699 -1.30212e-009 8.75243e-006 -1.4665e-008 
238.793 100.85 -20.8614 0.316789 2.29809 -80.8955 2.04626 -9.70474 -1.0009 -0.823925 19.3358 -1.40426 -3.11581 -9.58979 -0.244417 0.0462048 0.00053089 0.662642 2.56048 7.38849 0.987502 -1.72891 -2.51818 1.37671 7.19109 -1.74543 -12.0789 -31.6067 -3.40346 12.6849 -43.1771 -19.1274 -4.2918 -2.81099 58.0159 -12.9439 3.83329 9.6138 -5.49979 39.151 0.655474 -2.73149 38.6332 -10.8979 7.18154 0.159011 32.8003 19.0201 0.685591 10.0094 3.22095 3.31078 -22.6737 -2.81312 0.862672 30.1369 12.5832 0.211643 -6.95538 0.0255642 -1.30212e-009 8.75243e-006 -1.4665e-008 
237.876 101.002 -20.3338 0.24911 1.86467 -81.9829 1.44455 -8.74837 -1.13724 -1.03217 18.7451 -0.277902 -3.21488 -9.38212 -0.243972 0.0462048 0.00053089 0.662642 2.73116 7.9228 1.36028 -2.68759 -2.73774 1.90252 7.03969 -2.38456 -11.3301 -31.5456 -3.37452 12.623 -42.5655 -24.323 -2.81357 -3.68384 61.6873 -10.5367 3.50432 9.65691 -4.93132 39.0371 0.69985 -2.63143 38.6346 -8.54739 8.57151 0.283683 30.8915 19.8243 0.0696022 9.97372 4.28718 3.56603 -21.7256 -2.20304 0.972474 23.7258 12.2415 -0.829677 -5.30513 0.0369615 -1.30212e-009 8.75243e-006 -1.4665e-008 
